<?xml version="1.0" encoding="utf-8"?>
<!-- Generator: Adobe Illustrator 19.0.1, SVG Export Plug-In . SVG Version: 6.00 Build 0)  -->
<svg version="1.1" id="hand_x5F_arrow_1_" xmlns="http://www.w3.org/2000/svg" xmlns:xlink="http://www.w3.org/1999/xlink" x="0px"
	 y="0px" viewBox="0 0 128 128" style="enable-background:new 0 0 128 128;" xml:space="preserve">
<style type="text/css">
	.st0{display:none;}
	.st1{display:inline;}
	.st2{fill:#BCBABB;}
	.st3{fill:#2E1F24;}
	.st4{display:inline;fill-rule:evenodd;clip-rule:evenodd;fill:#2E1F24;}
</style>
<g id="row3_1_">
	<g id="thumb_1_" class="st0">
		<g id="dots" class="st1">
			<g>
				<path class="st2" d="M85.7,70.9l4.1,0.5l0.5-4.1l-4.1-0.5L85.7,70.9z M88.8,79.6l0.5-4.1L85.2,75l-0.5,4.1L88.8,79.6z
					 M87.7,87.8l0.5-4.1l-4.1-0.5l-0.5,4.1L87.7,87.8z M86.7,96.1l0.5-4.1l-4.1-0.5l-0.5,4.1L86.7,96.1z M85.7,104.3l0.5-4.1
					l-4.1-0.5l-0.5,4.1L85.7,104.3z M84.6,112.5l0.5-4.1l-4.1-0.5l-0.5,4.1L84.6,112.5z M83.6,120.8l0.5-4.1l-4.1-0.5l-0.5,4.1
					L83.6,120.8z M78.1,65.7l-0.5,4.1l4.1,0.5l0.5-4.1L78.1,65.7z M77,74l-0.5,4.1l4.1,0.5l0.5-4.1L77,74z M76,82.2l-0.5,4.1
					l4.1,0.5l0.5-4.1L76,82.2z M75,90.4l-0.5,4.1l4.1,0.5l0.5-4.1L75,90.4z M73.9,98.7l-0.5,4.1l4.1,0.5l0.5-4.1L73.9,98.7z
					 M72.9,106.9l-0.5,4.1l4.1,0.5l0.5-4.1L72.9,106.9z M71.3,119.3l4.1,0.5l0.5-4.1l-4.1-0.5L71.3,119.3z M81.1,74.5l4.1,0.5
					l0.5-4.1l-4.1-0.5L81.1,74.5z M80.1,82.7l4.1,0.5l0.5-4.1l-4.1-0.5L80.1,82.7z M79,90.9l4.1,0.5l0.5-4.1l-4.1-0.5L79,90.9z
					 M78,99.2l4.1,0.5l0.5-4.1l-4.1-0.5L78,99.2z M77,107.4l4.1,0.5l0.5-4.1l-4.1-0.5L77,107.4z M75.9,115.6l4.1,0.5l0.5-4.1
					l-4.1-0.5L75.9,115.6z M91.1,62.9l-0.3-4.1L86.7,59l0.3,4.1L91.1,62.9z M82,63.5l0.2,3.3l4.1-0.3l-0.3-4.1l-3.2,0.2l-0.2-3.3
					l-4.1,0.3l0.3,4.1L82,63.5z"/>
			</g>
		</g>
		<g id="icon" class="st1">
			<g>
				<path class="st3" d="M97.1,89.1c0.1-1.9-2.6-5.7-2.1-12.4c0.2-2.6,4.2-5.8,4.1-8.3c-0.1-4-2.5-7-4.1-10.4
					c-2.6-5.3-20.7-14.5-20.7-14.5s-5.8-3.3-6.2-12.4C67.7,21.9,69.1,0,55.7,0c-6,0-13.8,10.6-14.5,22.8
					c-0.9,15.8,3.7,27.9,1.4,28.8c-4.5,1.9-8.2,6.9-7.6,12.6c0.7,7.8,6.2,6.2,6.2,6.2s-11.1,4-10.4,12.4c0.5,5.3,6.9,7.3,10.4,8
					c1.2,0.1,2.1,0.3,2.1,0.3s-0.8-0.1-2.1-0.3c-4-0.4-12.4-0.2-12.4,8.6c0,7,6.2,8.3,6.2,8.3s-3.7,2.5-4.1,6.2
					c-0.9,6.6,2.1,10.9,10.4,12.4c15.3,2.9,32.5,1.8,39.4-2.1c2.4-1.3,2.4-3.9,4.1-6.2c3.3-4.5,6.2-4.1,8.3-8.3c1-1.9-1.7-4.5,0-8.3
					C95,96.9,97,92.9,97.1,89.1z M48.1,22c1-6.8,2.6-14.7,7.7-15.8c4.9,0,5.8,11.9,6.2,26.9c0.4,14.4,12.3,16.4,16.9,16.6h1.8
					c0,0-0.7,0-1.8,0H49.5C49.5,49.7,45.9,36.8,48.1,22z M90.9,89.1c0,2.2-2.9,6.3-4.1,10.4c-0.6,2.2,0.4,7.2,0,8.3
					c-0.8,2.3-4.3,3.3-8.3,6.2c-1.4,1-1,5.5-2.1,6.2c-3.9,2.7-6.7,2.5-12.5,2.9c-6.6,0.4-15.4-0.3-21.1-1.7
					c-3.4-0.9-6.6-2.9-5.8-7.4c0.6-3.2,13-0.8,20.9-1.6c3.5-0.3,6-0.5,6-0.5v-4.1c0,0-2.6,0.2-6.3,0.2c-8.6,0.1-23-2.7-22.7-8.5
					c0.2-3.9,15.3-4.4,25.1-4.4c4.6,0,8.1,0.2,8.1,0.2v-4.1c0,0-3.5-0.1-8.2-0.6c-9.1-0.9-22.4-1.3-22.8-7.7
					c-0.2-2.7,4.5-5.6,10.4-6.2c3.2-0.4,26.9,0,26.9,0v-4.1c0,0-5.8,0.4-12.4,0c-13.4-0.8-18.7-5.5-20-6.7c-1.3-1.2-0.6-2.6-0.7-3.7
					c-0.8-9.1,44-8.5,47.7-2.1c5,9,0,14.5,0,14.5s0,3.1,0,6.2C88.9,83.5,90.9,88.1,90.9,89.1z"/>
			</g>
		</g>
	</g>
	<g id="two_3_" class="st0">
		<g id="dot" class="st1">
			<g>
				<path class="st2" d="M91.9,100.9l-4.2,0.3l0.3,4.2l4.2-0.3L91.9,100.9z M83.5,101.5l-4.2,0.3l0.3,4.2l4.2-0.3L83.5,101.5z
					 M75.1,102.1l-4.2,0.3l0.3,4.2l4.2-0.3L75.1,102.1z M66.7,102.7l-4.2,0.3l0.3,4.2l4.2-0.3L66.7,102.7z M58.3,103.2l-4.2,0.3
					l0.3,4.2l4.2-0.3L58.3,103.2z M49.9,103.8l-4.2,0.3l0.3,4.2l4.2-0.3L49.9,103.8z M37.3,104.7l0.3,4.2l4.2-0.3l-0.3-4.2
					L37.3,104.7z M92.8,113.5l-0.3-4.2l-4.2,0.3l0.3,4.2L92.8,113.5z M79.9,110.2l0.3,4.2l4.2-0.3l-0.3-4.2L79.9,110.2z M71.5,110.8
					l0.3,4.2l4.2-0.3l-0.3-4.2L71.5,110.8z M63.1,111.4l0.3,4.2l4.2-0.3l-0.3-4.2L63.1,111.4z M54.7,112l0.3,4.2l4.2-0.3l-0.3-4.2
					L54.7,112z M46.3,112.6l0.3,4.2l4.2-0.3l-0.3-4.2L46.3,112.6z M37.9,113.1l0.3,4.2l4.2-0.3l-0.3-4.2L37.9,113.1z M88.3,109.6
					l-0.3-4.2l-4.2,0.3l0.3,4.2L88.3,109.6z M79.9,110.2l-0.3-4.2l-4.2,0.3l0.3,4.2L79.9,110.2z M71.5,110.8l-0.3-4.2l-4.2,0.3
					l0.3,4.2L71.5,110.8z M63.1,111.4l-0.3-4.2l-4.2,0.3l0.3,4.2L63.1,111.4z M54.7,112l-0.3-4.2l-4.2,0.3l0.3,4.2L54.7,112z
					 M46,108.3l-4.2,0.3l0.3,4.2l4.2-0.3L46,108.3z M84.4,114.1l0.3,4.2l4.2-0.3l-0.3-4.2L84.4,114.1z M76.3,118.9l4.2-0.3l-0.3-4.2
					l-4.2,0.3L76.3,118.9z M67.9,119.5l4.2-0.3l-0.3-4.2l-4.2,0.3L67.9,119.5z M59.5,120.1l4.2-0.3l-0.3-4.2l-4.2,0.3L59.5,120.1z
					 M51.1,120.7l4.2-0.3l-0.3-4.2l-4.2,0.3L51.1,120.7z M42.7,121.3l4.2-0.3l-0.3-4.2l-4.2,0.3L42.7,121.3z"/>
			</g>
		</g>
		<path id="icon_1_" class="st4" d="M21.1,61c-0.7-5.2,3.9-10.1,9.1-10.8c1.6-0.2,4.2-0.6,4.2-0.6l0.7,5.2c-0.8-5.7,1.9-10.9,7-12.5
			c0.6-0.2,1.8-0.4,1.8-0.4s-3.8-21.2-4.3-23.4c-0.4-2.2-4.3-15.4,8.2-17.4c8.4-1.3,11.6,8.5,13.7,13c2.1,4.8,9,39.8,8.9,40.1
			c0,0,11.1-44.9,11.3-46.6C82,5.9,84,1,90.2,0.1c6.3-0.9,12.2,3.6,13,9.9L93.7,50l0,0c0,0,4.8-0.4,9.7,7.2
			c3.5,5.4,3.7,23.3,3.4,25.1c-3.6,24-12.7,42.2-35.2,45.3c-22.5,3.1-43.2-12.7-46.3-35.2L21.1,61z M27.4,60.2
			c-0.2-1.7,2-3.5,3.7-3.7c1.7-0.2,4.4,0.8,4.6,2.6l1.3,9.4l6.3-0.9L41.4,54c-0.4-2.9,0.6-5.4,3.4-5.8c2.9-0.4,4.5,1.8,4.9,4.7
			l1.9,13.6l6.3-0.9l-7.2-22.5l-6.4-29.8c-0.4-2.9,1.6-5.6,4.5-5.9c2.9-0.4,4.5,1.9,5.9,4.5l13.8,52.2l6.1-0.8l12-51
			c0.4-3.1,1.6-5.6,4.5-5.9C93.9,6,96.6,8,97,10.9L83.2,77.4l6.2,1.2l3.4-21.8c0,0,2-0.4,4.7,3.3c6,8.1,4.6,19.5,1.9,29.6
			c-3.6,13.5-9.6,29-28.6,31.6c-19,2.6-36.5-10.7-39.1-29.8L27.4,60.2z"/>
	</g>
	<g id="punch_1_">
		<g id="dots_1_">
			<g>
				<path class="st2" d="M42,26.8l0.7,4.7l4.7-0.7l-0.7-4.7L42,26.8z M56.1,24.8l-4.7,0.7l0.7,4.7l4.7-0.7L56.1,24.8z M65.4,23.4
					l-4.7,0.7l0.7,4.7l4.7-0.7L65.4,23.4z M74.8,22.1l-4.7,0.7l0.7,4.7l4.7-0.7L74.8,22.1z M84.2,20.8l-4.7,0.7l0.7,4.7l4.7-0.7
					L84.2,20.8z M93.6,19.4l-4.7,0.7l0.7,4.7l4.7-0.7L93.6,19.4z M103,18.1l-4.7,0.7l0.7,4.7l4.7-0.7L103,18.1z M44,40.8l4.7-0.7
					L48,35.5l-4.7,0.7L44,40.8z M53.4,39.5l4.7-0.7l-0.7-4.7l-4.7,0.7L53.4,39.5z M62.8,38.2l4.7-0.7l-0.7-4.7l-4.7,0.7L62.8,38.2z
					 M72.1,36.9l4.7-0.7l-0.7-4.7l-4.7,0.7L72.1,36.9z M81.5,35.5l4.7-0.7l-0.7-4.7l-4.7,0.7L81.5,35.5z M90.9,34.2l4.7-0.7
					l-0.7-4.7l-4.7,0.7L90.9,34.2z M104.3,27.5l-4.7,0.7l0.7,4.7l4.7-0.7L104.3,27.5z M47.3,30.8l0.7,4.7l4.7-0.7L52,30.1L47.3,30.8
					z M56.7,29.5l0.7,4.7l4.7-0.7l-0.7-4.7L56.7,29.5z M66.1,28.1l0.7,4.7l4.7-0.7l-0.7-4.7L66.1,28.1z M75.5,26.8l0.7,4.7l4.7-0.7
					l-0.7-4.7L75.5,26.8z M84.9,25.5l0.7,4.7l4.7-0.7l-0.7-4.7L84.9,25.5z M94.3,24.1l0.7,4.7l4.7-0.7L99,23.5L94.3,24.1z M5.6,38
					l1.5,4.5l4.5-1.5L10,36.5L5.6,38z M19,33.4l-4.5,1.5l1.5,4.5l4.5-1.5L19,33.4z M28,30.3l-4.5,1.5l1.5,4.5l4.5-1.5L28,30.3z
					 M36.9,27.2l-4.5,1.5l1.5,4.5l4.5-1.5L36.9,27.2z M10.2,51.4l4.5-1.5l-1.5-4.5L8.7,47L10.2,51.4z M19.2,48.4l4.5-1.5l-1.5-4.5
					l-4.5,1.5L19.2,48.4z M28.1,45.3l4.5-1.5l-1.5-4.5l-4.5,1.5L28.1,45.3z M11.6,40.9l1.5,4.5l4.5-1.5l-1.5-4.5L11.6,40.9z
					 M20.6,37.8l1.5,4.5l4.5-1.5L25,36.3L20.6,37.8z M29.5,34.8l1.5,4.5l4.5-1.5L34,33.2L29.5,34.8z M43.9,35.9l-1.5-4.5L37.9,33
					l1.2,3.5l-3.6,1.2l1.5,4.5l4.5-1.5l-1.2-3.5L43.9,35.9z"/>
			</g>
		</g>
		<g id="icon_2_">
			<g>
				<path class="st3" d="M122.1,49.9c-3.9-16.4-11-32-15.4-34.7c-3.6-2.2-6.9-2.6-9.5-2.4c-6.2,0.6-11.9,4.7-11.9,4.7
					s-8.3-6.3-16.6-4.7c-10.4,2-19,11.8-19,11.8s-6.8-4.8-14.2-2.4c-6.8,2.3-14.2,11.8-14.2,11.8s-5-1.7-9.5,0
					C-0.8,39,0,54.5,0,72.9c0,8.5,4.7,18.2,4.7,18.2s3.2,3.5,7.1,4.7C24.9,99.9,23.7,84,23.7,84s1.6,15.6,16.6,16.6
					c10.2,0.7,14.2-14.2,14.2-14.2s2,9,8.7,13.4c3.7,2.4,10.3,3.4,15,0.9c6.4-3.6,9.5-9.5,9.5-9.5s9.1,5.3,19,2.4
					c-9.2,3-17.1-1.5-19,0c-2.9,2.4-14.8,11.4-9.5,19c4.9,6.9,33.5,0.3,40.3-7.1c3.9-4.3,9.5-19,9.5-19S126.9,70,122.1,49.9z
					 M90.1,81.6c-0.9-12.1-4.7-35.6-4.7-35.6h-7.1c0,0,9.7,39.9-2.4,47.4c-3.2,2-8.2,2.4-10.4,1.4c-9.5-4.5-8.6-41.7-8.6-41.7h-7.1
					c0,0,6.5,38.7-9.5,40.3c-12,1.2-14.2-35.5-14.2-35.5h-4.7c0,0,2.5,36-7.1,30.8C7.1,84.8,7,74.1,7.1,65
					c0.2-12.3,0.1-21.3,4.7-23.7c2.9-1.5,11.9,0,11.9,0s5.9-9.9,14.2-11.9c6.9-1.6,14.2,2.4,14.2,2.4S58.8,22,68.7,20
					c7.5-1.5,16.6,4.7,16.6,4.7s12.4-7.7,19-2.4c1.1,0.9,10,15,10.7,29.8c0.1,2.8-8.3-13.2-8.3-13.2s2.5,36.3,2.4,40.3
					C108.8,88.7,90.9,93.2,90.1,81.6z M113.8,100.6c-3.4,1.5-25.4,14.8-30.8,7.1c-1.2-1.7,7.1-9.5,7.1-9.5s6.8-0.3,14.2-2.4
					c4.4-1.2,8-5.3,9.1-6.7c-0.7,0.8-2.4,2.5-5.4,3.8c2.6-1.1,4.5-3.1,5.8-4.9l2.3-27.8l4.7,23.7C120.9,84,117.2,99.1,113.8,100.6z
					 M115,86.2c0.8-1.3,1.1-2.2,1.1-2.2L115,86.2z M113.4,89.2c0.2-0.3,0.4-0.4,0.4-0.4S113.6,88.9,113.4,89.2z M115,86.2
					c-0.3,0.6-0.7,1.2-1.2,1.8l-0.1,0.7L115,86.2z"/>
			</g>
		</g>
	</g>
	<g id="Okay_1_" class="st0">
		<g id="dots_2_" class="st1">
			<g>
				<path class="st2" d="M43.6,109.5l0.6,4l4-0.6l-0.6-4L43.6,109.5z M55.6,107.8l-4,0.6l0.6,4l4-0.6L55.6,107.8z M63.7,106.7
					l-4,0.6l0.6,4l4-0.6L63.7,106.7z M71.7,105.5l-4,0.6l0.6,4l4-0.6L71.7,105.5z M79.8,104.4l-4,0.6l0.6,4l4-0.6L79.8,104.4z
					 M87.8,103.2l-4,0.6l0.6,4l4-0.6L87.8,103.2z M95.9,102.1l-4,0.6l0.6,4l4-0.6L95.9,102.1z M45.3,121.6l4-0.6l-0.6-4l-4,0.6
					L45.3,121.6z M53.3,120.5l4-0.6l-0.6-4l-4,0.6L53.3,120.5z M61.4,119.3l4-0.6l-0.6-4l-4,0.6L61.4,119.3z M69.4,118.2l4-0.6
					l-0.6-4l-4,0.6L69.4,118.2z M77.5,117l4-0.6l-0.6-4l-4,0.6L77.5,117z M85.5,115.9l4-0.6l-0.6-4l-4,0.6L85.5,115.9z M97,110.1
					l-4,0.6l0.6,4l4-0.6L97,110.1z M48.2,113l0.6,4l4-0.6l-0.6-4L48.2,113z M56.2,111.8l0.6,4l4-0.6l-0.6-4L56.2,111.8z M64.3,110.7
					l0.6,4l4-0.6l-0.6-4L64.3,110.7z M72.3,109.5l0.6,4l4-0.6l-0.6-4L72.3,109.5z M80.4,108.4l0.6,4l4-0.6l-0.6-4L80.4,108.4z
					 M88.4,107.3l0.6,4l4-0.6l-0.6-4L88.4,107.3z"/>
			</g>
		</g>
		<g id="icon_3_" class="st1">
			<g>
				<path class="st3" d="M97.5,32.1c0,0-14.9-24.4-18.8-27.9c-3.8-3.6-5-4.6-8.2-4c-8.1,1.4-1.9,17.8-1.9,17.8l1.4,3.2
					c0,0-6.2-4.6-9.6-0.7c-1.6,1.8-2.6,4.9-1.2,7.1c6.6,10.7,13.4,19.3,13.4,19.3l-18.3-2c0,0-30.7,2.2-27.8,12
					c2.6,8.9,15.7,8.1,28.2,8.8c11,0.6,24,11.4,11.2,21.3C50.5,99,32.8,65,27.8,64.1c-20-3.8-11.6,21.3-9,25.1
					C21.4,93,50.3,128,50.3,128s12.2-1.6,23.9-3.2C84.8,123.4,95,122,95,122l18.3-46.5L97.5,32.1z M90.9,115.9L54.3,122
					c0,0-29.3-36.4-30.5-38.6c-1.2-2.2-6.7-14.7,3.3-11.1c1.5,0.6,14.6,21.7,30.1,22.9c26,2.1,27.9-36.8-6.9-36.2
					c-5.5,0.1-16.4-0.1-16.5-4c-0.1-4,22.6-4.1,22.6-4.1L86.8,55c0,0-24.7-28-20.3-28.4c2.4-0.3,14.2,8.1,14.2,8.1
					S67.5,8.9,73.5,7.5C75,7.1,89.7,33.1,89.7,33.1l8.4,19.6l7.9,21.7L90.9,115.9z"/>
			</g>
		</g>
	</g>
	<g id="down_1_" class="st0">
		<g id="dots_3_" class="st1">
			<g>
				<path class="st2" d="M37.9,76.3v-4.8h-4.7v4.8H37.9z M37.9,66.7V62h-4.7v4.8H37.9z M37.9,57.2v-4.8h-4.7v4.8H37.9z M37.9,47.7
					v-4.8h-4.7v4.8H37.9z M37.9,38.1v-4.8h-4.7v4.8H37.9z M37.9,28.6v-4.8h-4.7v4.8H37.9z M37.9,14.3h-4.7v4.8h4.7V14.3z M23.7,76.3
					h4.7v-4.8h-4.7V76.3z M28.4,62h-4.7v4.8h4.7V62z M28.4,52.4h-4.7v4.8h4.7V52.4z M28.4,42.9h-4.7v4.8h4.7V42.9z M28.4,33.4h-4.7
					v4.8h4.7V33.4z M28.4,23.8h-4.7v4.8h4.7V23.8z M28.4,14.3h-4.7v4.8h4.7V14.3z M28.4,71.5h4.7v-4.8h-4.7V71.5z M28.4,62h4.7v-4.8
					h-4.7V62z M28.4,52.4h4.7v-4.8h-4.7V52.4z M28.4,42.9h4.7v-4.8h-4.7V42.9z M28.4,33.4h4.7v-4.8h-4.7V33.4z M28.4,19.1v4.8h4.7
					v-4.8H28.4z M19,66.7v4.8h4.7v-4.8H19z M19,57.2V62h4.7v-4.8H19z M19,47.7v4.8h4.7v-4.8H19z M19,38.1v4.8h4.7v-4.8H19z M19,28.6
					v4.8h4.7v-4.8H19z M19,19.1v4.8h4.7v-4.8H19z"/>
			</g>
		</g>
		<path id="icon_4_" class="st4" d="M96,0c5.9,0,10.7,6,10.7,11.9c0,3.5-3.6,4.8-3.6,4.8c9.2,0,10.6,16,5,16.9
			c6,1.2,8.2,6.5,8.1,12.8c-0.1,5.9-2.4,8-2.4,8s4.7,6,4.7,11c0,7.2-5.8,13.1-13,13.1l-27.3-0.5c0,0,6.6,19.7,4.7,35.5
			c-0.9,8.7-6.3,14-13.3,14.3c-13.1,0.5-11-13.3-11.4-18.8c-0.4-4.5-3.6-9.3-6.2-13.9c-3.1-0.9-3.8-1.9-6.7-3
			c-21.4-8.3-36-23.3-36-45.9C9.5,20.8,30.2,0,55.7,0H96z M96,7.1c2,0,3.6,2.8,3.6,4.8c0,4.3-9.5,4.8-9.5,4.8v7h9.5
			c3.3,0,4.7,1.6,4.7,4.9s-0.3,4.8-3.6,4.8h-5.9v7.1h10.7c3.3,0,3.6,3.6,3.6,6.9c0,6.1-14.2,4.7-14.2,4.7v7.1h9.5
			c3.3,0,7.1,3,7.1,6.3c0,3.3-2.7,6-5.9,6l-36.7-0.4c0,0,11,35.9,7.1,45c-2,4.7-8.7,8.1-9.5,0c-0.8-8.1-4.8-20.2-9.5-26.1
			c-1.9-2.5-7.3-3.3-9.5-4.2c-14.6-5.8-30.8-17.6-30.8-39.3c0-21.7,17.5-39.3,39.1-39.3H96z"/>
	</g>
</g>
<g id="row2_1_">
	<g id="five_expand_1_" class="st0">
		<g id="dots_4_" class="st1">
			<g>
				<path class="st2" d="M37.6,104v4h4v-4H37.6z M49.6,104h-4v4h4V104z M57.6,104h-4v4h4V104z M65.6,104h-4v4h4V104z M73.6,104h-4v4
					h4V104z M81.6,104h-4v4h4V104z M89.6,104h-4v4h4V104z M37.6,112v4h4v-4H37.6z M45.6,112v4h4v-4H45.6z M53.6,112v4h4v-4H53.6z
					 M61.6,112v4h4v-4H61.6z M69.6,112v4h4v-4H69.6z M77.6,112v4h4v-4H77.6z M89.6,116v-4h-4v4H89.6z M45.6,108h-4v4h4V108z
					 M53.6,112v-4h-4v4H53.6z M61.6,112v-4h-4v4H61.6z M69.6,112v-4h-4v4H69.6z M77.6,112v-4h-4v4H77.6z M81.6,108v4h4v-4H81.6z
					 M41.6,120h4v-4h-4V120z M49.6,120h4v-4h-4V120z M57.6,120h4v-4h-4V120z M65.6,120h4v-4h-4V120z M73.6,120h4v-4h-4V120z
					 M81.6,120h4v-4h-4V120z"/>
			</g>
		</g>
		<g id="icon_5_" class="st1">
			<g>
				<path class="st3" d="M99.1,102.7c-0.1,0.4-0.3,0.8-0.5,1.1C98.8,103.5,98.9,103.2,99.1,102.7z M115.6,43c0-5-5-8.8-10-9
					c-6.1-0.3-14,20-14,20s7.5-28.4,8-32c0.5-3.6-0.8-11.5-10-12c-12-0.6-14,36-14,36h-2c0,0,1.6-34-2-42c-1.1-2.3-4.7-4.1-7-4
					c-6.1,0.2-11,4.9-11,11l1.7,33.6l-7.9-26.1c-1.2-5.4-6.6-8.8-12-7.5c-5.4,1.2-8.8,6.6-7.5,12c0,0,5,22.1,8.6,37.7
					c1.9,8.4-0.8-0.6-0.8-0.6S30,44.9,16.9,48.7c-8.7,4.8-2.6,12.4,1.3,24.2c1.9,5.9,1.4,9.7,3.4,17.1c6.1,22.1,19.5,38,41,38
					c16.3,0,30.3-10,36.1-24.2C95.7,110.7,115.6,43,115.6,43z M92.8,102.3C87.6,113.9,76,122,62.6,122c-18.2,0-28.1-13.7-33-26
					c-2.7-6.8-3.2-16.1-6.2-25.3c-2.7-8.2-7.1-14-3.4-16.4c4.6-2.9,13,10.1,18.4,19.6C47.6,90.5,43,62.5,43,62.5l-9.3-40.9
					c-0.5-2.2,0.9-4.3,3-4.8c2.2-0.5,4.3,0.9,4.8,3l11.3,40.7l7-0.5l-0.2-49c0-5.3,7.8-6.7,8-1c0.3,7,2,52,2,52h8l8-40
					c1.7-6.3,8-7.2,8-1l-8,45h6c0,0,9.5-22.5,14-26c1.7,0,4,1.3,4,3C109.6,43,91.3,104.4,92.8,102.3c0.3-0.7,0.6-1.3,0.8-2
					C93.1,101.5,92.9,102.2,92.8,102.3z"/>
			</g>
		</g>
	</g>
	<g id="up_1_" class="st0">
		<g id="dots_5_" class="st1">
			<g>
				<path class="st2" d="M37.9,51.7h-4.7v4.8h4.7V51.7z M37.9,66v-4.8h-4.7V66H37.9z M37.9,75.6v-4.8h-4.7v4.8H37.9z M37.9,85.1
					v-4.8h-4.7v4.8H37.9z M37.9,94.6v-4.8h-4.7v4.8H37.9z M37.9,104.2v-4.8h-4.7v4.8H37.9z M37.9,113.7v-4.8h-4.7v4.8H37.9z
					 M28.5,51.7h-4.7v4.8h4.7V51.7z M28.5,61.3h-4.7V66h4.7V61.3z M28.5,70.8h-4.7v4.8h4.7V70.8z M28.5,80.3h-4.7v4.8h4.7V80.3z
					 M28.5,89.9h-4.7v4.8h4.7V89.9z M28.5,99.4h-4.7v4.8h4.7V99.4z M23.7,113.7h4.7v-4.8h-4.7V113.7z M28.5,56.5v4.8h4.7v-4.8H28.5z
					 M28.5,70.8h4.7V66h-4.7V70.8z M28.5,80.3h4.7v-4.8h-4.7V80.3z M28.5,89.9h4.7v-4.8h-4.7V89.9z M28.5,99.4h4.7v-4.8h-4.7V99.4z
					 M28.5,108.9h4.7v-4.8h-4.7V108.9z M19,56.5v4.8h4.7v-4.8H19z M19,66v4.8h4.7V66H19z M19,75.6v4.8h4.7v-4.8H19z M19,85.1v4.8
					h4.7v-4.8H19z M19,94.6v4.8h4.7v-4.8H19z M19,104.2v4.8h4.7v-4.8H19z"/>
			</g>
		</g>
		<path id="icon_6_" class="st4" d="M96,128c5.9,0,10.7-6,10.7-11.9c0-3.5-3.6-4.8-3.6-4.8c9.2,0,10.6-16,5-16.9
			c6-1.2,8.2-6.5,8.1-12.8c-0.1-5.9-2.4-8-2.4-8s4.7-6,4.7-11c0-7.2-5.8-13.1-13-13.1l-27.2,0.5c0,0,6.6-19.7,4.7-35.5
			C82,5.6,76.7,0.3,69.7,0C56.6-0.5,58.7,13.3,58.3,18.8c-0.4,4.5-3.6,9.3-6.2,13.9c-3.1,0.9-3.8,1.9-6.7,3
			c-21.4,8.3-36,23.3-36,45.9c0,25.7,20.7,46.5,46.2,46.5H96z M96,120.9c2,0,3.6-2.8,3.6-4.8c0-4.3-9.5-4.8-9.5-4.8v-7h9.5
			c3.3,0,4.7-1.6,4.7-4.9c0-3.3-0.3-4.8-3.6-4.8h-5.9v-7.2h10.7c3.3,0,3.6-3.6,3.6-6.9c0-6.1-14.2-4.7-14.2-4.7v-7.1h9.5
			c3.3,0,7.1-3,7.1-6.3c0-3.3-2.7-6-5.9-6l-36.7,0.4c0,0,11-35.9,7.1-45c-2-4.7-8.7-8.1-9.5,0c-0.8,8.1-4.8,20.2-9.5,26.1
			c-1.9,2.5-7.3,3.4-9.5,4.2c-14.5,5.8-30.8,17.6-30.8,39.3c0,21.7,17.5,39.3,39.1,39.3H96z"/>
	</g>
	<g id="two_x5F_thumb_1_" class="st0">
		<g id="dots_6_" class="st1">
			<g>
				<path class="st2" d="M41.7,102.8v4.2h4.2v-4.2H41.7z M54.3,102.8h-4.2v4.2h4.2V102.8z M62.7,102.8h-4.2v4.2h4.2V102.8z
					 M71.1,102.8h-4.2v4.2h4.2V102.8z M79.5,102.8h-4.2v4.2h4.2V102.8z M87.9,102.8h-4.2v4.2h4.2V102.8z M96.3,102.8h-4.2v4.2h4.2
					V102.8z M41.7,111.2v4.2h4.2v-4.2H41.7z M50.1,111.2v4.2h4.2v-4.2H50.1z M58.5,111.2v4.2h4.2v-4.2H58.5z M66.9,111.2v4.2h4.2
					v-4.2H66.9z M75.3,111.2v4.2h4.2v-4.2H75.3z M83.7,111.2v4.2h4.2v-4.2H83.7z M96.3,115.4v-4.2h-4.2v4.2H96.3z M50.1,107h-4.2
					v4.2h4.2V107z M58.5,111.2V107h-4.2v4.2H58.5z M66.9,111.2V107h-4.2v4.2H66.9z M75.3,111.2V107h-4.2v4.2H75.3z M83.7,111.2V107
					h-4.2v4.2H83.7z M87.9,107v4.2h4.2V107H87.9z M45.9,119.6h4.2v-4.2h-4.2V119.6z M54.3,119.6h4.2v-4.2h-4.2V119.6z M62.7,119.6
					h4.2v-4.2h-4.2V119.6z M71.1,119.6h4.2v-4.2h-4.2V119.6z M79.5,119.6h4.2v-4.2h-4.2V119.6z M87.9,119.6h4.2v-4.2h-4.2V119.6z"/>
			</g>
		</g>
		<path id="icon_7_" class="st4" d="M108.9,64c0-5.2-5.3-9.4-10.5-9.4c-1.6,0-4.2,0-4.2,0v1c0-6.4-4.1-11.5-10.5-11.5
			c-3,0-3.7,2.4-4.7,2.8c-0.1-0.3-0.4-7-11-7c-3.7,0-5.2,2.1-5.2,2.1s0-20.1,0-29.4C62.7,5,55.6,0,51.1,0c-6.4,0-11.5,5.2-11.5,11.5
			v45.1c0,0-0.7-16.3-14.7-14.7c-9.6,3.5-4.8,12.2-2.7,25c1,6.3,0.6,13.5,2.7,21.2c6.4,23.2,20.4,39.9,43,39.9
			c22.6,0,40.9-18.3,40.9-40.9V64z M102.6,64c0-1.7-2.5-3.1-4.2-3.1c-1.7,0-4.2,1.4-4.2,3.1V65h-6.3v-9.4c0-2.9-1.3-5.2-4.2-5.2
			c-2.9,0-4.2,2.3-4.2,5.2V65h-6.3V51.4c0-2.9-2.3-5.2-5.2-5.2c-2.9,0-5.2,2.3-5.2,5.2V65h-6.3V11.5c0-2.9-2.4-5.2-5.2-5.2
			c-2.9,0-5.2,2.3-5.2,5.2v70.3c0,0-10.8-37-18.9-33.6c-4.2,1.8-0.6,8.4,0.8,17.3c1.6,9.9,2.7,21.7,5.5,28.9
			c5.2,12.9,15.5,27.3,34.6,27.3c19.1,0,34.6-15.5,34.6-34.6V64z"/>
	</g>
	<g id="three_x5F_thumb_1_" class="st0">
		<g id="dots_7_" class="st1">
			<g>
				<path class="st2" d="M42.8,104v4h4v-4H42.8z M54.8,104h-4v4h4V104z M62.8,104h-4v4h4V104z M70.8,104h-4v4h4V104z M78.8,104h-4v4
					h4V104z M86.8,104h-4v4h4V104z M94.8,104h-4v4h4V104z M42.8,112v4h4v-4H42.8z M50.8,112v4h4v-4H50.8z M58.8,112v4h4v-4H58.8z
					 M66.8,112v4h4v-4H66.8z M74.8,112v4h4v-4H74.8z M82.8,112v4h4v-4H82.8z M94.8,116v-4h-4v4H94.8z M50.8,108h-4v4h4V108z
					 M58.8,112v-4h-4v4H58.8z M66.8,112v-4h-4v4H66.8z M74.8,112v-4h-4v4H74.8z M82.8,112v-4h-4v4H82.8z M86.8,108v4h4v-4H86.8z
					 M46.8,120h4v-4h-4V120z M54.8,120h4v-4h-4V120z M62.8,120h4v-4h-4V120z M70.8,120h4v-4h-4V120z M78.8,120h4v-4h-4V120z
					 M86.8,120h4v-4h-4V120z"/>
			</g>
		</g>
		<path id="icon_8_" class="st4" d="M106.8,67c0-5-5-9-10-9c-1.5,0-4,0-4,0s0.6-10-10-10c-1.2,0-3.2,0.2-4.2,0.5
			c-0.1-0.3,0-39.2-0.1-39.7c-1-5-5.5-8.8-10.8-8.8c-6.1,0-11,4.9-11,11c0,0,0.1,1.7,0,5c-1.2-1.6-3.4-2-5-2c-6.1,0-11,4.9-11,11v35
			c0,0-0.7-15.6-14-14c-9.2,3.3-4.5,11.6-2.6,23.8c1,6,0.6,12.9,2.6,20.2c6.1,22.1,19.5,38,41,38c21.5,0,39-17.5,39-39V67z
			 M100.8,67c0-1.7-2.3-3-4-3c-1.7,0-4,1.3-4,3v1h-6v-9c0-2.8-1.2-5-4-5c-2.8,0-4,2.2-4,5v9h-6V11c0-2.8-2.2-5-5-5c-2.8,0-5,2.2-5,5
			v57h-6V25c0-2.8-2.2-5-5-5c-2.8,0-5,2.2-5,5v59c0,0-10.3-35.3-18-32c-4,1.7-0.6,8,0.7,16.5C31,77.9,32,89.2,34.8,96
			c4.9,12.3,14.8,26,33,26c18.2,0,33-14.8,33-33V67z"/>
	</g>
	<g id="one_3_" class="st0">
		<g id="dots_26_" class="st1">
			<g>
				<path class="st2" d="M26,38.2h-4.3v4.3H26V38.2z M26,51.2v-4.3h-4.3v4.3H26z M26,59.8v-4.3h-4.3v4.3H26z M26,68.5v-4.3h-4.3v4.3
					H26z M26,77.1v-4.3h-4.3v4.3H26z M26,85.8v-4.3h-4.3v4.3H26z M26,94.4v-4.3h-4.3v4.3H26z M17.4,38.2H13v4.3h4.3V38.2z
					 M17.4,46.9H13v4.3h4.3V46.9z M17.4,55.5H13v4.3h4.3V55.5z M17.4,64.2H13v4.3h4.3V64.2z M17.4,72.8H13v4.3h4.3V72.8z M17.4,81.4
					H13v4.3h4.3V81.4z M13,94.4h4.3v-4.3H13V94.4z M17.4,42.5v4.3h4.3v-4.3H17.4z M17.4,55.5h4.3v-4.3h-4.3V55.5z M17.4,64.2h4.3
					v-4.3h-4.3V64.2z M17.4,72.8h4.3v-4.3h-4.3V72.8z M17.4,81.4h4.3v-4.3h-4.3V81.4z M17.4,90.1h4.3v-4.3h-4.3V90.1z M8.7,42.5v4.3
					H13v-4.3H8.7z M8.7,51.2v4.3H13v-4.3H8.7z M8.7,59.8v4.3H13v-4.3H8.7z M8.7,68.5v4.3H13v-4.3H8.7z M8.7,77.1v4.3H13v-4.3H8.7z
					 M8.7,85.8v4.3H13v-4.3H8.7z"/>
			</g>
		</g>
		<path id="icon_14_" class="st4" d="M74.8,107.4c5.4,0,9.8-5.4,9.8-10.8c0-1.6,0-4.3,0-4.3h-5.4c6.6,0,11.9-4.2,11.9-10.8
			c0-1.3-0.2-3.5-0.6-4.5c0.3-0.1-3,0-2.5-0.1c5.5-1.1,9.6-5.9,9.6-11.7c0-4.2,0-5.4,0-5.4s14.3,0,19.5,0c11,0,10.8-13.3,10.8-11.9
			c0-6.6-5.3-11.9-11.9-11.9H73.8h2.2c0,0-0.3-9-8.7-13c-6-2.8-24.2-2.7-26-2.2C17.3,27.9,0,42,0,65.2c0,23.3,18.9,42.1,42.3,42.1
			H74.8z M74.8,100.9c1.8,0,3.3-2.5,3.3-4.3c0-1.8-1.5-4.3-3.3-4.3h-9.8v-6.5h14.1c3,0,5.4-1.3,5.4-4.3c0-3-2.4-4.3-5.4-4.3H65.1
			v-6.5h20.6c3,0,5.4-2.4,5.4-5.4c0-3-2.4-5.4-5.4-5.4H65.1v-6.5h51c3,0,5.4-2.4,5.4-5.4c0-3-2.4-5.4-5.4-5.4H47.7l21.7-6.5
			c0,0-0.2-4.2-4.3-6.5c-9.1-5-20.5-4.2-30.4,0c-13.2,5.6-28.2,16-28.2,35.7c0,19.7,16,35.7,35.8,35.7H74.8z"/>
	</g>
</g>
<g id="row1_1_">
	<g id="five_1_" class="st0">
		<g id="dots_8_" class="st1">
			<g>
				<path class="st2" d="M42.6,104v4h4v-4H42.6z M54.7,104h-4v4h4V104z M62.7,104h-4v4h4V104z M70.8,104h-4v4h4V104z M78.8,104h-4v4
					h4V104z M86.9,104h-4v4h4V104z M94.9,104h-4v4h4V104z M42.6,112v4h4v-4H42.6z M50.7,112v4h4v-4H50.7z M58.7,112v4h4v-4H58.7z
					 M66.8,112v4h4v-4H66.8z M74.8,112v4h4v-4H74.8z M82.9,112v4h4v-4H82.9z M94.9,116v-4h-4v4H94.9z M50.7,108h-4v4h4V108z
					 M58.7,112v-4h-4v4H58.7z M66.8,112v-4h-4v4H66.8z M74.8,112v-4h-4v4H74.8z M82.9,112v-4h-4v4H82.9z M86.9,108v4h4v-4H86.9z
					 M46.7,120h4v-4h-4V120z M54.7,120h4v-4h-4V120z M62.7,120h4v-4h-4V120z M70.8,120h4v-4h-4V120z M78.8,120h4v-4h-4V120z
					 M86.9,120h4v-4h-4V120z"/>
			</g>
		</g>
		<path id="icon_9_" class="st4" d="M107,43c0-5-5.1-9-10.1-9c-1.5,0-4,0-4,0V21c0-6.1-4-11-10.1-11c-1.2,0-3.2,0.2-4.2,0.5
			c-0.1-0.3,0-1.2-0.1-1.7c-1-5-5.5-8.8-10.8-8.8c-6.1,0-11.1,4.9-11.1,11c0,0,0.1,1.7,0,5c-1.2-1.6-3.4-2-5-2
			c-6.1,0-11.1,4.9-11.1,11v35c0,0-0.7-15.6-14.1-14c-9.2,3.3-4.6,11.6-2.6,23.8c1,6,0.6,12.9,2.6,20.2c6.2,22.1,19.6,38,41.2,38
			c21.7,0,39.2-17.5,39.2-39V43z M101,43c0-1.7-2.4-3-4-3c-1.7,0-4,1.3-4,3v25h-6V21c0-2.8-1.2-5-4-5c-2.8,0-4,2.2-4,5v47h-6V11
			c0-2.8-2.2-5-5-5c-2.8,0-5,2.2-5,5v57h-6V25c0-2.8-2.2-5-5-5c-2.8,0-5,2.2-5,5v59c0,0-10.4-35.3-18.1-32c-4,1.7-0.6,8,0.7,16.5
			c1.5,9.5,2.6,20.7,5.3,27.5c4.9,12.3,14.9,26,33.2,26c18.3,0,33.2-14.8,33.2-33V43z"/>
	</g>
	<g id="four_1_" class="st0">
		<g id="dots_9_" class="st1">
			<g>
				<path class="st2" d="M40.2,104v4h4v-4H40.2z M52.2,104h-4v4h4V104z M60.2,104h-4v4h4V104z M68.1,104h-4v4h4V104z M76.1,104h-4v4
					h4V104z M84.1,104h-4v4h4V104z M92,104h-4v4h4V104z M40.2,112v4h4v-4H40.2z M48.2,112v4h4v-4H48.2z M56.2,112v4h4v-4H56.2z
					 M64.1,112v4h4v-4H64.1z M72.1,112v4h4v-4H72.1z M80.1,112v4h4v-4H80.1z M92,116v-4h-4v4H92z M48.2,108h-4v4h4V108z M56.2,112
					v-4h-4v4H56.2z M64.1,112v-4h-4v4H64.1z M72.1,112v-4h-4v4H72.1z M80.1,112v-4h-4v4H80.1z M84.1,108v4h4v-4H84.1z M44.2,120h4
					v-4h-4V120z M52.2,120h4v-4h-4V120z M60.2,120h4v-4h-4V120z M68.1,120h4v-4h-4V120z M76.1,120h4v-4h-4V120z M84.1,120h4v-4h-4
					V120z"/>
			</g>
		</g>
		<path id="icon_10_" class="st4" d="M104,43c0-5-5-9-10-9c-1.5,0-4,0-4,0V21c0-6.1-3.9-11-10-11c-1.2,0-3.2,0.2-4.2,0.5
			c-0.1-0.3,0-1.2-0.1-1.7c-1-5-5.4-8.8-10.7-8.8c-6.1,0-11,4.9-11,11c0,0,0.1,1.7,0,5c-1.2-1.6-3.4-2-5-2c-6.1,0-11,4.9-11,11v35
			v-2c0,0-8.3,0.3-12,8c-2.6,5.5-2.5,22.3-2,24c6.5,22,19.4,38,40.9,38c21.5,0,38.9-17.5,38.9-39V43z M98,43c0-1.7-2.3-3-4-3
			c-1.7,0-4,1.3-4,3v25h-6V21c0-2.8-1.2-5-4-5c-2.8,0-4,2.2-4,5v47h-6V11c0-2.8-2.2-5-5-5c-2.8,0-5,2.2-5,5v57h-6V25
			c0-2.8-2.2-5-5-5c-2.8,0-5,2.2-5,5v59l-6-20c0,0-3.9,0.2-6,4c-4.6,8.4-3.8,18.9,0,28c5.1,12.2,14.7,26,32.9,26
			C83.3,122,98,107.2,98,89V43z"/>
	</g>
	<g id="three_1_" class="st0">
		<g id="dots_10_" class="st1">
			<g>
				<path class="st2" d="M40.2,104v4h4v-4H40.2z M52.2,104h-4v4h4V104z M60.2,104h-4v4h4V104z M68.1,104h-4v4h4V104z M76.1,104h-4v4
					h4V104z M84.1,104h-4v4h4V104z M92,104h-4v4h4V104z M40.2,112v4h4v-4H40.2z M48.2,112v4h4v-4H48.2z M56.2,112v4h4v-4H56.2z
					 M64.1,112v4h4v-4H64.1z M72.1,112v4h4v-4H72.1z M80.1,112v4h4v-4H80.1z M92,116v-4h-4v4H92z M48.2,108h-4v4h4V108z M56.2,112
					v-4h-4v4H56.2z M64.1,112v-4h-4v4H64.1z M72.1,112v-4h-4v4H72.1z M80.1,112v-4h-4v4H80.1z M84.1,108v4h4v-4H84.1z M44.2,120h4
					v-4h-4V120z M52.2,120h4v-4h-4V120z M60.2,120h4v-4h-4V120z M68.1,120h4v-4h-4V120z M76.1,120h4v-4h-4V120z M84.1,120h4v-4h-4
					V120z"/>
			</g>
		</g>
		<path id="icon_11_" class="st4" d="M104,59c0-5-5-9-10-9c-1.5,0-4,0-4,0V21c0-6.1-3.9-11-10-11c-1.2,0-3.2,0.2-4.1,0.5
			c-0.1-0.3,0-1.2-0.1-1.7c-1-5-5.4-8.8-10.7-8.8c-6.1,0-11,4.9-11,11c0,0,0.1,1.7,0,5c-1.2-1.6-3.4-2-5-2c-6.1,0-11,4.9-11,11v35
			v-2c0,0-8.3,0.3-12,8c-2.6,5.5-2.5,22.3-2,24c6.5,22,19.4,38,40.9,38c21.5,0,38.9-17.5,38.9-39V59z M98,59c0-1.7-2.3-3-4-3
			c-1.6,0-4,1.3-4,3v9h-6V21c0-2.8-1.2-5-4-5c-2.8,0-4,2.2-4,5v47h-6V11c0-2.8-2.2-5-5-5c-2.8,0-5,2.2-5,5v57h-6V25c0-2.8-2.2-5-5-5
			c-2.8,0-5,2.2-5,5v59l-6-20c0,0-3.9,0.2-6,4c-4.6,8.4-3.8,18.9,0,28c5.1,12.2,14.7,26,32.9,26C83.3,122,98,107.2,98,89V59z"/>
	</g>
	<g id="two_2_" class="st0">
		<g id="dots_11_" class="st1">
			<g>
				<path class="st2" d="M40.2,104v4h4v-4H40.2z M52.2,104h-4v4h4V104z M60.2,104h-4v4h4V104z M68.1,104h-4v4h4V104z M76.1,104h-4v4
					h4V104z M84.1,104h-4v4h4V104z M92,104h-4v4h4V104z M40.2,112v4h4v-4H40.2z M48.2,112v4h4v-4H48.2z M56.2,112v4h4v-4H56.2z
					 M64.1,112v4h4v-4H64.1z M72.1,112v4h4v-4H72.1z M80.1,112v4h4v-4H80.1z M92,116v-4h-4v4H92z M48.2,108h-4v4h4V108z M56.2,112
					v-4h-4v4H56.2z M64.1,112v-4h-4v4H64.1z M72.1,112v-4h-4v4H72.1z M80.1,112v-4h-4v4H80.1z M84.1,108v4h4v-4H84.1z M44.2,120h4
					v-4h-4V120z M52.2,120h4v-4h-4V120z M60.2,120h4v-4h-4V120z M68.1,120h4v-4h-4V120z M76.1,120h4v-4h-4V120z M84.1,120h4v-4h-4
					V120z"/>
			</g>
		</g>
		<path id="icon_12_" class="st4" d="M104,59c0-5-5-9-10-9c-1.5,0-4,0-4,0v5c0-6.1-3.9-11-10-11c-1.2,0-3.2,0.2-4.1,0.5
			c-0.1-0.3,0-35.2-0.1-35.7c-1-5-5.4-8.8-10.7-8.8c-6.1,0-11,4.9-11,11c0,0,0.1,1.7,0,5c-1.2-1.6-3.4-2-5-2c-6.1,0-11,4.9-11,11v35
			v-2c0,0-8.3,0.3-12,8c-2.6,5.5-2.5,22.3-2,24c6.5,22,19.4,38,40.9,38c21.5,0,38.9-17.5,38.9-39V59z M98,59c0-1.7-2.3-3-4-3
			c-1.6,0-4,1.3-4,3v9h-6V55c0-2.8-1.2-5-4-5c-2.8,0-4,2.2-4,5v13h-6V11c0-2.8-2.2-5-5-5c-2.8,0-5,2.2-5,5v57h-6V25c0-2.8-2.2-5-5-5
			c-2.8,0-5,2.2-5,5v59l-6-20c0,0-3.9,0.2-6,4c-4.6,8.4-3.8,18.9,0,28c5.1,12.2,14.7,26,32.9,26S98,107.2,98,89V59z"/>
	</g>
	<g id="one_2_" class="st0">
		<g id="dots_12_" class="st1">
			<g>
				<path class="st2" d="M38.2,102v4.3h4.3V102H38.2z M51.2,102h-4.3v4.3h4.3V102z M59.8,102h-4.3v4.3h4.3V102z M68.5,102h-4.3v4.3
					h4.3V102z M77.1,102h-4.3v4.3h4.3V102z M85.8,102h-4.3v4.3h4.3V102z M94.4,102h-4.3v4.3h4.3V102z M38.2,110.6v4.3h4.3v-4.3H38.2
					z M46.9,110.6v4.3h4.3v-4.3H46.9z M55.5,110.6v4.3h4.3v-4.3H55.5z M64.2,110.6v4.3h4.3v-4.3H64.2z M72.8,110.6v4.3h4.3v-4.3
					H72.8z M81.4,110.6v4.3h4.3v-4.3H81.4z M94.4,115v-4.3h-4.3v4.3H94.4z M46.9,106.3h-4.3v4.3h4.3V106.3z M55.5,110.6v-4.3h-4.3
					v4.3H55.5z M64.2,110.6v-4.3h-4.3v4.3H64.2z M72.8,110.6v-4.3h-4.3v4.3H72.8z M81.4,110.6v-4.3h-4.3v4.3H81.4z M85.8,106.3v4.3
					h4.3v-4.3H85.8z M42.5,119.3h4.3V115h-4.3V119.3z M51.2,119.3h4.3V115h-4.3V119.3z M59.8,119.3h4.3V115h-4.3V119.3z M68.5,119.3
					h4.3V115h-4.3V119.3z M77.1,119.3h4.3V115h-4.3V119.3z M85.8,119.3h4.3V115h-4.3V119.3z"/>
			</g>
		</g>
		<path id="icon_13_" class="st4" d="M107.4,53.2c0-5.4-5.4-9.8-10.8-9.8c-1.6,0-4.3,0-4.3,0v5.4c0-6.6-4.2-11.9-10.8-11.9
			c-1.3,0-3.5,0.2-4.5,0.6c-0.1-0.3,0,3-0.1,2.5c-1.1-5.5-5.9-9.6-11.7-9.6c-4.2,0-5.4,0-5.4,0s0-14.3,0-19.5
			C59.8-0.2,46.5,0,47.9,0C41.4,0,36,5.3,36,11.9v42.3v-2.2c0,0-9,0.3-13,8.7c-2.8,6-2.7,24.2-2.2,26c7,23.9,21,41.2,44.3,41.2
			c23.3,0,42.2-18.9,42.2-42.3V53.2z M100.9,53.2c0-1.8-2.5-3.3-4.3-3.3c-1.8,0-4.3,1.5-4.3,3.3v9.8h-6.5V48.8c0-3-1.3-5.4-4.3-5.4
			c-3,0-4.3,2.4-4.3,5.4v14.1h-6.5V42.3c0-3-2.4-5.4-5.4-5.4c-3,0-5.4,2.4-5.4,5.4v20.6h-6.5v-51c0-3-2.4-5.4-5.4-5.4
			c-3,0-5.4,2.4-5.4,5.4v68.3L36,58.6c0,0-4.2,0.2-6.5,4.3c-5,9.1-4.2,20.5,0,30.4c5.6,13.2,16,28.2,35.7,28.2s35.7-16,35.7-35.8
			V53.2z"/>
	</g>
</g>
</svg>
